<svg xmlns="http://www.w3.org/2000/svg" xmlns:xlink="http://www.w3.org/1999/xlink" width="92" height="92" viewBox="0 0 92 92"><defs><path id="maxha" d="M978.68 1857.91a32.48 32.48 0 0 1-24.8 24.85L947 1896.5l-6.87-13.74a32.48 32.48 0 0 1-24.8-24.85L901.5 1851l13.82-6.91a32.48 32.48 0 0 1 24.8-24.85l6.88-13.74 6.87 13.74a32.48 32.48 0 0 1 24.8 24.85l13.83 6.91zM960 1828.48a26 26 0 1 0-26 45.04 26 26 0 0 0 26-45.04zm-7.37 25.77a6.44 6.44 0 0 1-2.5 2.43l-14.5 14.02 4.9-19.57a6.44 6.44 0 0 1 .84-3.38 6.44 6.44 0 0 1 2.5-2.43l14.5-14.02-4.9 19.56a6.44 6.44 0 0 1-.84 3.39z"/></defs><g><g transform="translate(-901 -1805)"><use fill="#fff" xlink:href="#maxha"/></g></g></svg>