<svg xmlns="http://www.w3.org/2000/svg" xmlns:xlink="http://www.w3.org/1999/xlink" width="71" height="74" viewBox="0 0 71 74"><defs><path id="f4sma" d="M334.23 1870.75c-.77 0-1.49.1-2.15.33-.67.22-1.33.48-2 .78-.66.31-1.34.57-2.03.8-.7.21-1.4.33-2.11.33v-6.8c.27-.12.46-.17.58-.17.44-.11.83-.17 1.16-.17.39 0 .8-.1 1.24-.33 1-.39 1.94-.78 2.83-1.16a7.22 7.22 0 0 1 2.9-.58c1.22 0 2.29.23 3.23.7.95.47 1.97.82 3.08 1.04h1.07v-16.34l-5.06-11.53c-.1-.23-.18-.4-.2-.55a3.63 3.63 0 0 1-.05-.62c0-.6.18-1.13.54-1.58.36-.44.82-.81 1.37-1.12.55-.3 1.12-.56 1.7-.79.58-.22 1.12-.4 1.62-.58v-10.12h5.89v-5.31h8.3v-6.88h10.28v6.88h8.22v5.31h5.97v10.04c0 .11.26.25.8.42.52.16 1.11.38 1.78.66.66.28 1.25.66 1.78 1.16.52.5.79 1.1.79 1.83v.74c0 .17-.06.4-.17.67l-5.06 11.53v16.18c1.33 0 2.57-.3 3.73-.87a8.2 8.2 0 0 1 5.98-.54c.72.22 1.4.46 2.07.7.66.25 1.36.5 2.08.75.71.25 1.46.4 2.23.46v6.97c-.71 0-1.42-.12-2.11-.34-.7-.22-1.38-.48-2.07-.79-.7-.3-1.39-.56-2.08-.78a7.25 7.25 0 0 0-4.52.04c-.72.25-1.44.52-2.16.83-.72.3-1.46.58-2.24.83a7.92 7.92 0 0 1-4.73 0c-.71-.25-1.44-.53-2.15-.83-.72-.3-1.44-.58-2.16-.83a6.76 6.76 0 0 0-2.24-.37c-.78 0-1.52.1-2.24.33-.72.22-1.43.48-2.12.78-.7.31-1.4.57-2.11.8a7.92 7.92 0 0 1-4.56 0c-.72-.23-1.45-.49-2.16-.8-.72-.3-1.43-.56-2.12-.78a7.52 7.52 0 0 0-4.6.04c-.72.25-1.44.52-2.16.83-.72.3-1.44.58-2.16.83a7.5 7.5 0 0 1-4.69 0c-.74-.25-1.5-.53-2.24-.83-.74-.3-1.5-.58-2.28-.83a8.06 8.06 0 0 0-2.49-.37zm.42 10.7a7.5 7.5 0 0 0-2.28.33 21 21 0 0 0-2.08.79c-.69.3-1.38.57-2.07.79a7.5 7.5 0 0 1-2.28.33v-6.97l.08-.25c.55 0 1.13-.04 1.74-.13.61-.08 1.14-.23 1.58-.45l2.49-1.16c.72-.33 1.55-.5 2.48-.5.67 0 1.32.1 1.96.29.63.2 1.24.42 1.82.66l1.75.75a8.1 8.1 0 0 0 2.7.62h.9c.72 0 1.41-.04 2.08-.12a7.47 7.47 0 0 0 1.99-.54c.88-.33 1.66-.66 2.32-1a5.3 5.3 0 0 1 2.4-.5c.84 0 1.62.13 2.37.38s1.48.51 2.2.79c.72.27 1.45.54 2.2.78a7 7 0 0 0 4.56 0c.75-.24 1.48-.5 2.2-.78.72-.28 1.45-.54 2.2-.79a7.28 7.28 0 0 1 2.36-.37c1 0 1.88.16 2.66.5l2.57 1.07c.61.28 1.2.45 1.79.5.58.06 1.17.08 1.78.08h.91c.22 0 .39-.01.5-.04a14.74 14.74 0 0 0 4.11-1.37 8.16 8.16 0 0 1 3.77-.9c1 0 1.88.21 2.66.65.77.45 1.63.8 2.57 1.08.39.17.9.3 1.53.37.64.09 1.12.13 1.45.13v7.13c-.93 0-1.75-.1-2.44-.32-.7-.23-1.37-.47-2.03-.75-.67-.28-1.33-.53-2-.75a7.43 7.43 0 0 0-4.56.04c-.72.25-1.44.53-2.16.83-.72.3-1.44.58-2.15.83a6.94 6.94 0 0 1-4.57 0c-.71-.25-1.4-.52-2.07-.83-.66-.3-1.36-.58-2.08-.83a7.9 7.9 0 0 0-4.56-.04c-.72.22-1.44.47-2.16.75-.71.28-1.43.52-2.15.75a8.75 8.75 0 0 1-4.64 0c-.78-.23-1.55-.5-2.3-.8-.74-.3-1.48-.56-2.23-.78a8.35 8.35 0 0 0-2.37-.33 6 6 0 0 0-2.15.37c-.67.25-1.33.53-2 .83-.66.3-1.35.58-2.07.82a7.4 7.4 0 0 1-4.6 0 48.3 48.3 0 0 1-2.2-.78 70 70 0 0 0-2.16-.8 7.03 7.03 0 0 0-2.32-.36zm11.78-55.01v3.99l14.1-5.73c.28-.12.53-.17.75-.17.22 0 .45.05.66.17l13.36 5.56c.28.11.58.17.91.17v-3.99h-5.89v-5.06h-18.17v5.06z"/></defs><g><g transform="translate(-326 -1810)"><use fill="#f5f6f7" xlink:href="#f4sma"/></g></g></svg>