<svg xmlns="http://www.w3.org/2000/svg" xmlns:xlink="http://www.w3.org/1999/xlink" width="90" height="59" viewBox="0 0 90 59"><defs><path id="x6x7a" d="M795.1 1859.83c-5.76 12.33-27.55 19.49-27.55 19.49s-8.38-2.76-16.12-7.79a90.62 90.62 0 0 1-8.84 3.59s-26.34-8.65-33.28-23.55c-5.23-11.2-1.27-24.12 8.85-28.84 8.34-3.9 18.27-.99 24.43 6.45 6.15-7.44 16.08-10.34 24.43-6.45a18.98 18.98 0 0 1 9.53 10.18 18.78 18.78 0 0 0-9 6.06c-5.1-6.16-13.31-8.56-20.22-5.34-6.2 2.9-9.6 9.51-9.2 16.52.39-6.1 3.69-11.62 9.2-14.19 6.9-3.22 15.13-.81 20.22 5.34 5.1-6.15 13.31-8.56 20.22-5.34 8.37 3.9 11.65 14.6 7.32 23.87z"/></defs><g><g transform="translate(-707 -1821)"><use fill="#1dd2af" xlink:href="#x6x7a"/></g></g></svg>